<?xml version="1.0" standalone="no"?>
<!DOCTYPE svg PUBLIC "-//W3C//DTD SVG 20010904//EN"
 "http://www.w3.org/TR/2001/REC-SVG-20010904/DTD/svg10.dtd">
<svg version="1.0" xmlns="http://www.w3.org/2000/svg"
 width="200.000000pt" height="200.000000pt" viewBox="0 0 200.000000 200.000000"
 preserveAspectRatio="xMidYMid meet">
<g transform="translate(0.000000,200.000000) scale(0.100000,-0.100000)"
fill="#000000" stroke="none">
<path d="M901 1959 c-41 -13 -118 -87 -530 -518 -176 -184 -328 -351 -338
-370 -21 -44 -21 -102 1 -136 29 -44 62 -58 147 -63 l79 -5 0 -317 c0 -348 3
-368 60 -440 56 -71 90 -80 303 -80 l187 0 0 348 c0 257 3 351 12 360 8 8 60
12 170 12 145 0 158 -1 168 -19 6 -13 10 -145 10 -360 l0 -341 185 0 c166 0
190 2 225 20 50 25 84 60 113 113 21 41 22 52 25 375 l3 332 57 0 c123 0 182
42 182 128 -1 26 -9 62 -18 80 -23 43 -785 836 -830 864 -40 24 -155 34 -211
17z"/>
</g>
</svg>
